<?xml version="1.0" encoding="UTF-8"?><svg id="Logo" xmlns="http://www.w3.org/2000/svg" viewBox="0 0 1712.32 759.21"><defs><style>.cls-1{stroke-width:0px;}</style></defs><path class="cls-1" d="m878.85,481.22c9.28,11.24,21.26,16.86,36.16,16.86,18.33,0,31.03-8.31,36.89-24.19v69.64h30.05v-171.27h-23.7l-3.66,20.03c-5.13-13.93-19.55-22.96-37.38-22.96-32.25,0-52.04,24.92-52.04,66.7,0,18.81,4.64,33.96,13.68,45.2Zm46.18-89.18c15.39,0,26.87,11.73,26.87,30.05v18.57c0,20.77-10.99,33.72-27.36,33.72-18.33,0-28.59-13.93-28.59-39.09,0-27.61,10.51-43.25,29.08-43.25Zm526.28,294.58c-5.86,0-8.55-2.93-8.55-9.53v-56.44c0-26.14-15.88-39.58-46.42-39.58-28.1,0-46.91,14.17-49.11,37.38l28.34,4.4c.25-12.46,6.84-19.3,19.3-19.3s19.05,6.84,19.05,18.81v13.68c-3.91-.25-9.53-.74-13.44-.74-37.87,0-58.88,14.42-58.88,39.09,0,21.5,15.15,34.94,38.6,34.94,16.86,0,30.78-7.57,35.43-20.03.98,3.17,1.96,6.11,3.67,9.04,4.64,7.08,12.71,10.99,22.72,10.99,6.6,0,13.44-1.71,17.59-4.64l-1.22-20.52c-1.71,1.71-4.4,2.44-7.08,2.44Zm-37.38-24.68c0,16.86-9.77,26.88-24.43,26.88-11.48,0-18.57-6.35-18.57-16.37,0-12.95,11.24-19.79,32.98-19.79,1.22,0,4.89,0,10.02.74v8.55ZM785.27,146.32h-53.75v-26.14h138.29v26.14h-53.75v137.07h-30.78v-137.07Zm-404.4,271c16.24-4.43,32.33-10.28,48.1-17.63C579.14,329.66,644.11,151.16,574.08,1L30.29,254.57c38.85,83.31,111.1,140.38,193.36,162.74C96.1,451.86,2.26,568.4,2.26,706.89h600.01c0-138.48-93.84-255.03-221.39-289.57Zm75.49-305.46c26.49-12.35,57.99-.89,70.34,25.61,12.35,26.49.89,57.98-25.61,70.34-26.49,12.35-57.99.89-70.34-25.61-12.35-26.49-.89-57.98,25.61-70.34Zm1122.97,509.04v86h-30.3v-77.7c0-14.66-7.08-22.72-20.03-22.72-16.62,0-26.39,11.24-26.39,31.52v68.9h-30.05v-122.9h24.68l3.66,23.7c6.11-16.86,20.77-26.63,40.07-26.63,23.46,0,38.36,15.15,38.36,39.82Zm130.72-36.89l-45.2,127.78c-11.97,33.23-25.9,46.43-49.36,46.43-7.82,0-16.13-2.2-21.99-5.87l5.13-22.96c5.62,3.91,9.28,5.13,14.42,5.13,10.51,0,15.15-5.38,21.75-23.21l-44.96-127.29h31.76l28.83,93.33h.49l29.81-93.33h29.32Zm-794.8-300.62h-30.05V120.18h30.05v60.84c6.84-14.9,20.77-23.45,38.36-23.45,23.46,0,38.36,15.15,38.36,39.83v86h-30.3v-77.69c0-14.66-7.08-22.72-20.03-22.72-16.62,0-26.39,11.24-26.39,31.52v68.9Zm590.05,211.76h-30.05v-122.9h25.41l3.42,29.81c4.89-19.79,19.3-32.5,37.63-32.5,2.69,0,5.37,0,8.06.73l-1.71,30.79c-2.93-.98-8.31-1.71-12.46-1.71-18.32,0-30.3,13.93-30.3,36.4v59.37Zm-176.4-28.1l4.15,22.24c-7.82,5.62-18.57,8.8-29.32,8.8-26.14,0-40.31-13.19-40.31-37.63v-65.72h-16.62v-22.48h16.62v-26.14l30.3-3.91v30.05h34.45v22.48h-34.45v62.06c0,10.99,5.13,16.61,15.64,16.61,6.84,0,12.46-1.71,19.55-6.35Zm-262.16-180.72c25.41,0,43.98-12.22,49.84-33.96l-24.92-8.06c-3.17,12.71-11.24,19.06-24.67,19.06-17.84,0-28.59-13.44-29.32-36.16h77.7c1.22-3.91,2.44-10.51,2.44-16.37,0-32.25-19.54-53.26-50.82-53.26-17.84,0-32.01,5.86-42.51,17.59-10.51,11.73-15.64,27.61-15.64,47.64,0,39.83,21.75,63.53,57.91,63.53Zm-.24-107.02c13.68,0,22.72,10.26,22.72,25.17,0,3.17,0,4.88-.24,6.11h-50.82c1.95-19.79,12.46-31.27,28.34-31.27Zm181.29,313.64l-1.22-20.52c-1.71,1.71-4.4,2.44-7.08,2.44-5.86,0-8.55-2.93-8.55-9.53v-56.44c0-26.14-15.88-39.58-46.42-39.58-28.1,0-46.91,14.17-49.11,37.38l28.34,4.4c.25-12.46,6.84-19.3,19.3-19.3s19.05,6.84,19.05,18.81v13.68c-3.91-.25-9.53-.74-13.44-.74-37.87,0-58.88,14.42-58.88,39.09,0,21.5,15.15,34.94,38.6,34.94,16.86,0,30.78-7.57,35.43-20.03.98,3.17,1.96,6.11,3.67,9.04,4.64,7.08,12.71,10.99,22.72,10.99,6.6,0,13.44-1.71,17.59-4.64Zm-45.69-42.76c0,16.86-9.77,26.88-24.43,26.88-11.48,0-18.57-6.35-18.57-16.37,0-12.95,11.24-19.79,32.98-19.79,1.22,0,4.89,0,10.02.74v8.55Zm-11.73,169.74v86.98h-30.05v-77.94c0-14.9-6.35-22.48-19.79-22.48-14.9,0-23.94,11.48-23.94,31.27v69.14h-30.3v-77.94c0-14.9-6.6-22.48-19.55-22.48-14.9,0-24.19,11.73-24.19,31.52v68.9h-30.05v-122.9h24.68l3.66,23.7c5.62-16.62,19.79-26.63,37.63-26.63s31.03,9.53,35.67,25.9c6.6-16.37,20.77-25.9,38.36-25.9,23.45,0,37.87,14.42,37.87,38.85Zm207.92-121.85c36.16,0,58.39-24.43,58.39-64.5s-22.48-64.26-58.39-64.26c-17.84,0-32.25,5.86-42.76,17.35-10.51,11.48-15.64,27.12-15.64,46.91s5.13,35.92,15.64,47.4c10.51,11.48,24.92,17.1,42.76,17.1Zm0-106.28c18.57,0,28.34,14.41,28.34,41.78s-9.77,42.02-28.34,42.02-28.1-14.42-28.1-42.02,9.53-41.78,28.1-41.78Zm-116.54,189.28c-17.84,0-33.23,11-38.12,25.9l-3.42-22.96h-24.68v171.27h30.05v-64.01c5.62,11.48,18.57,18.57,34.21,18.57s28.59-5.86,38.12-17.84c9.53-11.97,14.42-27.85,14.42-47.4s-4.64-34.69-13.68-46.17c-9.04-11.48-21.25-17.35-36.89-17.35Zm-9.77,106.28c-15.64,0-26.39-11.73-26.39-30.3v-18.08c0-20.77,11.24-33.96,26.88-33.96,18.81,0,29.07,14.17,29.07,40.56s-10.99,41.78-29.56,41.78Zm-264.85-228.86v-86.25h30.05v79.41c0,14.42,7.08,22.48,19.79,22.48,15.64,0,25.17-11.97,25.17-32.5v-69.39h30.3v122.9h-25.17l-3.66-22.97c-5.62,16.86-18.81,25.9-38.36,25.9-22.72,0-38.12-15.15-38.12-39.58Zm-240.42,166.8c0,36.89,15.15,58.64,41.29,58.64,16.86,0,29.32-10.26,33.96-27.85l27.12,12.95c-9.04,26.39-30.54,40.8-61.08,40.8-22.23,0-40.31-7.57-53.75-22.72-13.44-15.39-20.03-35.92-20.03-61.81s6.6-46.42,20.03-61.57c13.44-15.39,31.52-22.97,53.75-22.97,30.54,0,52.04,14.17,61.08,40.56l-27.12,13.19c-4.64-17.59-16.62-27.61-33.96-27.61-26.14,0-41.29,21.5-41.29,58.39Zm168.83-44.22c-17.84,0-32.25,5.86-42.76,17.35-10.51,11.48-15.64,27.12-15.64,46.91s5.13,35.92,15.64,47.4c10.51,11.48,24.92,17.1,42.76,17.1,36.16,0,58.39-24.43,58.39-64.5s-22.48-64.26-58.39-64.26Zm0,106.28c-18.57,0-28.1-14.42-28.1-42.02s9.53-41.78,28.1-41.78,28.34,14.41,28.34,41.78-9.77,42.02-28.34,42.02Zm-161.99-329.28v42.03h70.61v24.43h-70.61v44.47h79.41v26.14h-109.22v-163.21h109.22v26.14h-79.41Z"/></svg>